<?xml version="1.0" encoding="UTF-8"?>
<svg id="_レイヤー_1" data-name="レイヤー_1" xmlns="http://www.w3.org/2000/svg" version="1.1" viewBox="0 0 493.91 149.49">
  <!-- Generator: Adobe Illustrator 29.2.1, SVG Export Plug-In . SVG Version: 2.1.0 Build 116)  -->
  <defs>
    <style>
      .st0, .st1 {
        fill: #c55e5c;
      }

      .st1 {
        font-family: CrackStone, CrackStone;
        font-size: 28.49px;
      }
    </style>
  </defs>
  <text/>
  <text/>
  <g>
    <path class="st0" d="M31.92,30.13c0,.43.68,11.11-3.95,18.46-4.69,7.35-13.4,11.42-13.77,11.61-.37.19-.86.06-1.11-.25l-7.35-9.57c-.25-.31-.25-.86.06-1.17.06-.06,4.51-4.88,6.91-9.45,2.59-5,4.26-12.22,4.32-12.29.06-.49.56-.8,1.05-.68l13.03,2.47c.43.06.74.43.8.86ZM56.12,15.25v9.01c0,.49-.37.86-.86.93-.06,0-1.42.06-3.83.12.12,2.9.25,6.11.37,9.51.37,13.4.12,24.02.12,24.14,0,.49-.43.93-.93.93h-16.85c-.49,0-.93-.43-.93-.93,0-.12-.25-10.74.12-24.14.12-3.27.25-6.42.37-9.26h-2.59c-13.34,0-23.95-.37-24.08-.37-.49-.06-.86-.43-.86-.93v-9.01c0-.49.37-.93.86-.93.12,0,10.74-.43,24.08-.43h3.21c.12-2.04.25-3.21.25-3.21,0-.49.43-.86.93-.86h14.14c.49,0,.93.37.93.86,0,0,.12,1.3.25,3.52,2.78.06,4.38.12,4.45.12.49,0,.86.43.86.93Z"/>
    <path class="st0" d="M116.62,31.24c.19.19.25.43.19.68l-2.35,12.72c-.06.37-.37.68-.74.74-.37.06-9.45,1.67-17.53-1.67-1.73-.68-3.33-1.73-4.82-2.96-.49,10.5-1.3,18.21-1.3,18.27,0,.49-.43.86-.93.86h-17.72c-.49,0-.86-.37-.93-.86,0-.06-1.05-10.74-1.48-24.14-.49-13.46-.19-24.08-.19-24.2,0-.49.43-.86.93-.86h21.11c.49,0,.86.37.93.86,0,.06.12,4.82.06,11.92l5.37-3.09c.43-.25.99-.12,1.23.31.06.06,3.27,5.19,7.66,7.72,4.44,2.65,9.82,3.33,9.88,3.33.25,0,.49.12.62.37ZM103.41,15.68c-.12-.25-.12-.49-.06-.74.06-.25.25-.43.49-.56l2.41-1.17c.43-.19.93-.06,1.17.25.06.06,1.17,1.67,2.22,3.64,1.05,2.04,1.67,3.89,1.73,3.95.12.43-.06.93-.49,1.17l-2.65,1.3c-.19.12-.49.19-.74.06-.19-.06-.43-.25-.49-.49l-1.67-3.64c-.8-1.73-1.91-3.77-1.91-3.77ZM116.62,19.26l-2.65,1.36c-.25.12-.49.12-.74.06-.25-.12-.43-.31-.56-.49l-1.6-3.7c-.8-1.73-1.91-3.77-1.91-3.77-.12-.25-.19-.49-.06-.74.06-.25.25-.43.43-.56l2.47-1.17c.43-.19.86-.06,1.17.31,0,.06,1.17,1.6,2.16,3.64,1.05,1.98,1.73,3.83,1.73,3.95.19.43,0,.93-.43,1.11Z"/>
    <path class="st0" d="M146.26,39.45l-14.38.74c-.43,0-.86-.31-.93-.8,0-.06-.86-5.99-.99-13.52-.12-7.72.68-15.62.68-15.74.06-.49.49-.8.93-.8l14.82.43c.25,0,.49.12.62.31.19.19.25.37.25.62,0,.12-.25,9.14-.25,14.2l.12,13.64c0,.49-.37.93-.86.93ZM178.3,32.35c-.49,13.52-8.64,24.14-20.31,26.49-10.43,2.1-18.03.49-18.4.37-.31-.06-.56-.31-.68-.62l-3.52-13.09c-.06-.25,0-.49.12-.74.19-.25.43-.37.68-.37.06-.06,8.15-.93,12.1-3.4,4.57-2.9,6.42-7.1,6.61-15.13.19-7.9-.19-15.19-.25-15.31,0-.25.12-.43.25-.62.19-.19.43-.31.68-.31l19.57-.93c.43,0,.86.31.93.68.12.43,2.65,10.06,2.22,22.97Z"/>
    <path class="st0" d="M241.4,24.94v15.06c0,.49-.43.93-.93.93-.12,0-10.87.43-24.39.43s-24.32-.43-24.45-.43c-.49,0-.86-.43-.86-.93v-15.06c0-.49.37-.93.86-.93.12,0,10.87-.43,24.45-.43s24.26.43,24.39.43c.49,0,.93.43.93.93Z"/>
    <path class="st0" d="M301.65,25.31c-.12,3.95-1.48,10.87-8.15,18.27,2.96,3.46,4.75,6.24,4.88,6.42.25.37.19.86-.12,1.17l-7.53,7.53c-.37.37-.93.37-1.3,0-.06-.06-2.72-2.59-6.91-6.3-9.32,5.25-21.98,7.53-22.6,7.66-.43.06-.8-.12-.99-.56l-4.57-11.17c-.19-.43,0-.93.43-1.17.12,0,6.61-3.21,12.47-6.85-4.63-3.21-8.27-5.37-8.33-5.43-.43-.25-.62-.8-.37-1.23l4.82-8.46c.19-.37.68-.56,1.11-.43.37.12,7.29,2.59,14.57,6.79.25-.25.49-.56.68-.8,1.85-2.41,3.03-5,2.72-6.05-.31-.86-1.11-1.05-3.4-1.3-2.72-.25-8.64-.31-11.24-.31s-7.96.12-11.67.19c-.49.06-.86-.31-.93-.8l-.8-9.94c0-.43.31-.86.8-.99.06,0,10-1.79,19.76-1.85,8.4-.06,14.01.37,19.63,2.53,5.49,2.1,7.22,5.43,7.04,13.09Z"/>
    <path class="st0" d="M364.87,34.45c-.25,14.14-5.37,18.58-13.64,21.24-1.6.56-3.33.86-5,1.11-.43,1.54-.68,2.47-.74,2.53-.12.37-.49.62-.86.62l-13.95-.31c-.25-.06-.49-.12-.68-.31-.19-.19-.25-.43-.25-.74,0,0,.12-1.23.25-3.21-1.42-.37-2.22-.68-2.35-.74-.43-.12-.68-.56-.62-.93l.86-10.62c.06-.49.43-.86.93-.86.56,0,1.17.06,1.85.06.06-2.78.19-5.68.25-8.58,0-1.36.06-2.72.06-4.07-2.28.37-4.32.8-5.68,1.17-.06.8-.06,1.61-.06,2.41-.06,8.09.31,21.42.31,21.55.06.49-.37.93-.8.93l-7.96.68c-.43,0-.86-.31-.99-.8,0-.12-1.73-10.5-1.67-22.29.06-11.79,1.85-21.55,1.85-21.61.12-.49.56-.8.99-.74l8.64.43c.25,0,.49.12.62.31.19.19.25.49.25.74,0,0-.19,1.85-.37,4.51,1.36-.62,3.03-1.36,4.94-1.98-.06-2.72-.06-4.38-.06-4.38,0-.49.37-.93.86-.99l13.46-.56c.43-.06.86.25.99.68,0,0,.37,1.36.8,3.7,5.49.62,9.75,2.47,12.72,5.49,3.46,3.52,5.12,8.77,5.06,15.56ZM349.32,34.08c.06,1.67,0,3.21-.12,4.82,1.73-1.05,2.84-2.28,3.02-3.95.12-1.67-.12-2.84-.86-3.7-.49-.49-1.17-.93-2.1-1.3.06,1.36.06,2.72.06,4.14Z"/>
    <path class="st0" d="M425.38,43.16c-.86,8.03-3.52,16.55-3.52,16.61-.12.43-.56.68-.99.62l-15.19-1.48c-.25-.06-.49-.19-.62-.37-.19-.19-.25-.43-.19-.68,0-.06.93-6.67,1.23-10.5.12-1.42.37-4.94.19-8.15s-.62-4.2-2.16-5.25c-.49-.37-1.42-.74-3.09-1.05,0,.62-.06,1.3-.06,1.98-.43,13.34-.49,23.95-.49,24.08,0,.49-.43.93-.93.93h-16.79c-.49,0-.86-.37-.93-.8,0-.12-1.11-8.33-1.54-21.73-.06-1.73-.06-3.46-.06-5.12-1.05,0-2.1.06-3.09.12-.49.06-.99-.31-.99-.86l-.74-10.12c-.06-.49.31-.93.8-.99.06,0,1.85-.25,4.69-.49.49-5.62,1.11-9.51,1.11-9.57.06-.49.49-.8.93-.8l18.4.56c.25,0,.49.12.62.31.19.19.31.43.25.68,0,.06-.25,3.09-.49,7.96,11.48.25,16.11,1.42,20.06,4.69,4.63,3.83,4.26,12.96,3.58,19.45ZM427.48,14.57l-2.22,6.24c-.06.25-.25.43-.49.56-.25.06-.49.06-.74,0-.06,0-4.2-1.73-7.84-2.59-3.52-.86-8.27-1.6-8.27-1.6-.49-.06-.86-.49-.8-.99l.68-6.17c.06-.43.43-.8.93-.8.12,0,4.26-.19,9.82.93,5.68,1.17,8.52,3.27,8.64,3.4.37.25.49.68.31,1.05Z"/>
    <path class="st0" d="M488.35,37.41c-.25,13.58-5.31,21.24-5.56,21.55-.19.31-.56.49-.93.37l-10.5-2.16c-.43-.06-.8-.56-.68-1.05,0-.06.93-6.24,1.17-13.71.19-6.98-.93-11.67-3.46-14.2-1.54-1.6-3.58-2.41-6.17-2.41-3.02,0-5.43.86-7.04,2.47-1.91,1.91-2.28,4.38-2.28,6.17,0,4.75,1.36,4.75,2.04,4.75.31,0,.49-.12.74-.31,1.05-1.11,1.23-4.32,1.17-6.05,0-.25.06-.49.25-.68.19-.19.43-.31.68-.31h9.14c.49,0,.86.31.93.8.06.37,1.3,9.2-1.3,16.11-2.59,6.73-6.85,10.19-12.53,10.19-9.51,0-15.25-6.73-16.18-18.89-.56-7.29,1.67-14.14,6.05-18.83,4.38-4.75,10.87-7.22,18.77-7.22,8.71,0,15.37,2.28,19.82,6.85,3.95,4.01,6.05,9.88,5.86,16.55Z"/>
    <path class="st0" d="M181.08,94.85v10.5c0,.49-.37.93-.86.93-.12,0-6.42.25-15.62.37-.06,2.04-.19,3.89-.25,5.49,3.64.19,6.48.56,8.58,1.05,4.2.99,5.68,2.72,6.61,5.12.99,2.53.74,6.98.37,11.73-.43,5.87-1.54,10.93-1.54,10.99-.06.43-.43.68-.86.74-.12,0-12.59.56-22.53.56s-22.97-.62-23.15-.62c-.37,0-.74-.31-.86-.74,0-.06-.8-4.32-1.6-11.67-.8-7.22-.93-15.13-.93-15.19v-.19l.06-.06c0-.19.12-.31.25-.43.12-.12.31-.19.43-.25h.06c.12,0,6.85-.8,15.13-1.23-.19-2.35-.37-5.31-.43-8.64-.25-7.53-.12-13.52-.12-13.58,0-.56.43-.93.93-.93h19.2c.49,0,.93.37.93.93,0,0,.06,1.48.06,3.83,9.01.12,15.19.37,15.31.37.49,0,.86.43.86.93ZM158.73,123.38c-.93-.62-3.09-.68-5.31-.68-1.54,0-3.52.12-5.25.31.06.43.06.86.06,1.3.19,2.41.37,4.2.43,5.12h5.37c2.96,0,4.44-.06,5.19-.06.12-.62.25-1.54.31-2.65v-.99c0-1.3-.19-1.98-.8-2.35Z"/>
    <path class="st0" d="M219.97,120.1l2.53,17.9c.06.37-.12.8-.49.99-.25.12-6.24,3.15-14.82,3.27-9.94.06-14.76-6.98-15.19-22.29-.43-15.93,3.33-26.55,3.52-26.98.12-.43.56-.68.93-.62l15.93,1.3c.49.06.86.49.86.99-.06.12-.56,9.08-.68,14.69-.19,6.67,1.11,7.96,2.41,8.77,1.98,1.17,4.07,1.17,4.14,1.17.43,0,.8.37.86.8ZM238.87,139.8c-.06.49-.49.8-.93.8l-10.43-.25c-.49,0-.93-.43-.93-.93,0-.12.06-13.58-.37-22.1-.43-8.52-2.28-21.11-2.28-21.24-.06-.25,0-.49.19-.74.12-.19.37-.31.62-.31l11.11-1.54c.43-.06.86.25.99.68.06.12,2.72,10.25,3.27,22.66.49,12.41-1.23,22.9-1.23,22.97Z"/>
    <path class="st0" d="M305.3,133.56c0,.12,0,.25-.06.37l-3.95,8.33c-.19.37-.56.56-.99.49-.62-.19-15-3.52-22.72-10.93-7.72,7.41-22.1,10.74-22.72,10.93-.37.06-.8-.12-.99-.49l-3.89-8.33c-.19-.43-.06-.93.31-1.11.12-.06,8.89-5.19,13.33-13.64-6.54-.12-10.8-.31-10.87-.31-.49,0-.86-.37-.86-.86v-11.3c0-.49.37-.86.86-.86.06,0,5.8-.25,14.2-.37.19-1.3.31-2.59.37-3.83h-15c-.49,0-.93-.37-.93-.86l-.43-9.94c0-.49.37-.93.93-.93.06,0,11.48-.49,25.87-.49s25.74.49,25.87.49c.25,0,.49.12.62.25.19.19.25.43.25.68l-.43,9.94c0,.49-.43.86-.93.86h-15.25c.06,1.23.19,2.53.37,3.83,8.33.12,14.08.37,14.2.37.43,0,.8.37.8.86v11.3c0,.49-.37.86-.8.86-.12,0-4.38.19-10.87.31,4.32,8.52,13.15,13.58,13.27,13.64.25.12.43.43.43.74Z"/>
    <path class="st0" d="M365.8,118.37c-.43,8.58-1.91,22.53-1.91,22.72-.06.43-.43.8-.86.8-.12,0-13.03.31-23.15.31s-24.14-.31-24.32-.31c-.49,0-.86-.37-.86-.86l-.06-.19c-.43-6.79-.99-16.11-1.48-26.67-.43-10.68-.37-23.34-.37-23.46,0-.49.37-.93.86-.93.12,0,11.98-.99,23.95-1.05,10.25,0,17.16.49,20.56,1.48,4.01,1.17,5.49,2.84,6.67,5.12,1.79,3.58,1.42,13.77.99,23.03ZM353.89,98.74c-.43-.19-1.54-.49-4.57-.74-2.28-.25-6.79-.37-10.8-.37-7.16,0-13.58.31-15.87.49,0,2.28.06,8.64.25,14.76.25,7.1.74,15.68.86,18.34,2.65.06,10.8.19,15.5.19,4.69.06,13.09-.12,15.74-.19.19-2.41.62-9.32.74-15.37l.06-1.54c0-2.22.06-4.88.06-7.22,0-2.84-.06-5.25-.31-6.17-.19-.62-.62-1.73-1.67-2.16ZM339.25,99.36c7.16,0,13.33.31,13.4.31.56.06.93.49.93.99l-.31,6.17c-.06.49-.49.86-.99.86-.06,0-2.84-.12-6.54-.19v1.54c3.4.06,5.87.19,5.93.19.49,0,.86.43.86.93v5.43c0,.49-.37.93-.86.93-.06,0-2.59.12-6.11.19-.06,1.17-.12,2.28-.19,3.4.62-.06,1.23-.06,1.79-.06l-.19-1.73c0-.25.06-.49.25-.68.19-.25.43-.37.68-.37h2.59c.31,0,.62.19.8.43.06.12.49.8.68,2.22.56-.06.86-.06.93-.06.25,0,.49.06.68.25.12.19.25.43.25.68l.06,7.84c0,.49-.43.93-.86.93-.06,0-5.99.37-13.77.37s-13.71-.37-13.77-.37c-.43,0-.86-.43-.86-.93l.06-7.84c0-.25.12-.49.25-.68.19-.19.43-.25.68-.25.06,0,3.33.12,7.53.19-.06-1.05-.12-2.16-.19-3.33-3.52-.06-6.05-.19-6.11-.19-.49,0-.86-.43-.86-.93v-5.43c0-.49.37-.93.86-.93.06,0,2.53-.12,5.93-.19v-1.54c-3.7.06-6.48.19-6.54.19-.49,0-.93-.37-.99-.86l-.31-6.17c0-.49.37-.93.86-.99.06,0,6.3-.31,13.46-.31Z"/>
  </g>
  <text class="st1" transform="translate(3 266.31)"><tspan x="0" y="0">オドリーヌゆかの</tspan><tspan x="56.98" y="33.24">占い天国</tspan></text>
</svg>